<svg width="32" height="32" viewBox="0 0 32 32" fill="none" xmlns="http://www.w3.org/2000/svg">
  <defs>
    <linearGradient id="grad" x1="0%" y1="0%" x2="100%" y2="100%">
      <stop offset="0%" style="stop-color:#667eea;stop-opacity:1" />
      <stop offset="100%" style="stop-color:#764ba2;stop-opacity:1" />
    </linearGradient>
  </defs>
  
  <!-- Background circle -->
  <circle cx="16" cy="16" r="15" fill="url(#grad)"/>
  
  <!-- Solar Panel -->
  <rect x="8" y="13" width="16" height="10" rx="1" fill="white" opacity="0.9"/>
  <line x1="11" y1="13" x2="11" y2="23" stroke="#667eea" stroke-width="0.8" opacity="0.6"/>
  <line x1="14" y1="13" x2="14" y2="23" stroke="#667eea" stroke-width="0.8" opacity="0.6"/>
  <line x1="17" y1="13" x2="17" y2="23" stroke="#667eea" stroke-width="0.8" opacity="0.6"/>
  <line x1="20" y1="13" x2="20" y2="23" stroke="#667eea" stroke-width="0.8" opacity="0.6"/>
  <line x1="8" y1="16" x2="24" y2="16" stroke="#667eea" stroke-width="0.8" opacity="0.6"/>
  <line x1="8" y1="20" x2="24" y2="20" stroke="#667eea" stroke-width="0.8" opacity="0.6"/>
  
  <!-- Sun -->
  <circle cx="16" cy="7" r="2" fill="#FFD700"/>
  <line x1="16" y1="4" x2="16" y2="2.5" stroke="#FFD700" stroke-width="1" stroke-linecap="round"/>
  <line x1="19" y1="5.5" x2="20" y2="4.5" stroke="#FFD700" stroke-width="1" stroke-linecap="round"/>
  <line x1="20.5" y1="7" x2="22" y2="7" stroke="#FFD700" stroke-width="1" stroke-linecap="round"/>
  <line x1="13" y1="5.5" x2="12" y2="4.5" stroke="#FFD700" stroke-width="1" stroke-linecap="round"/>
  <line x1="11.5" y1="7" x2="10" y2="7" stroke="#FFD700" stroke-width="1" stroke-linecap="round"/>
  
  <!-- Energy waves -->
  <path d="M 16 25 Q 18 26 20 25" stroke="white" stroke-width="1.2" fill="none" opacity="0.7" stroke-linecap="round"/>
  <path d="M 14 27 Q 16 28 18 27" stroke="white" stroke-width="1" fill="none" opacity="0.5" stroke-linecap="round"/>
</svg>
